# Blender 3.6.2
# www.blender.org
mtllib Tresen_blockout.mtl
o Tresen_blockout
v 0.288158 0.064725 5.691662
v 0.288158 0.904639 5.691662
v 0.223432 0.000000 4.614980
v 0.223432 0.969365 4.614980
v 4.054681 0.064725 5.691662
v 4.054681 0.904639 5.691662
v 4.119406 0.000000 4.614980
v 4.119406 0.969365 4.614980
v 0.223432 0.000000 5.691662
v 0.223432 0.969365 5.691662
v 4.119406 0.969365 5.691662
v 4.119406 0.000000 5.691662
v 0.223432 0.000000 5.210182
v 4.119406 0.000000 5.210182
v 0.288158 0.064725 5.210182
v 0.288158 0.904639 5.210182
v 4.054681 0.904639 5.210182
v 4.054681 0.064725 5.210182
vn -1.0000 -0.0000 -0.0000
vn -0.0000 -0.0000 -1.0000
vn 1.0000 -0.0000 -0.0000
vn -0.0000 1.0000 -0.0000
vn -0.0000 -0.0000 1.0000
vn -0.0000 -1.0000 -0.0000
vt 0.375000 0.000000
vt 0.625000 0.000000
vt 0.625000 0.250000
vt 0.375000 0.250000
vt 0.625000 0.500000
vt 0.375000 0.500000
vt 0.625000 0.750000
vt 0.375000 0.750000
vt 0.392815 0.754153
vt 0.607185 0.754153
vt 0.875000 0.500000
vt 0.875000 0.750000
vt 0.392815 0.995847
vt 0.607185 0.995847
vt 0.625000 1.000000
vt 0.375000 1.000000
s 0
f 9/1/1 10/2/1 4/3/1 3/4/1
f 3/4/2 4/3/2 8/5/2 7/6/2
f 7/6/3 8/5/3 11/7/3 12/8/3
f 5/9/1 6/10/1 17/10/1 18/9/1
f 8/5/4 4/11/4 10/12/4 11/7/4
f 1/13/5 2/14/5 10/15/5 9/16/5
f 6/10/5 5/9/5 12/8/5 11/7/5
f 6/10/6 2/14/6 16/14/6 17/10/6
f 2/14/5 6/10/5 11/7/5 10/15/5
f 18/9/5 17/10/5 16/14/5 15/13/5
f 18/9/5 15/13/5 13/16/5 14/8/5
f 2/14/3 1/13/3 15/13/3 16/14/3
